# xmcd
#
# Track frame offsets:
#  150
#  10301
#  22423
#  36000
#  46231
#  56998
#  67949
#  81625
#  93782
#  104804
#  117254
#  128652
#  142779
#  156524
#  167455
#  177811
#
# Disc length: 2535 seconds
#
# Revision: 0
# Processed by: cddbd v1.5.2PL0 Copyright (c) Steve Scherf et al.
# Submitted via: AltoMP3_Maker 3.0
#
DISCID=d809e510
DTITLE=Various Artist - Country Classics Vol8
DYEAR=1900
DGENRE=
TTITLE0=Three Cigarettes In An Ashtray
TTITLE1=Wild Side Of Life
TTITLE2=Mule Train
TTITLE3=There You Go
TTITLE4=Someday You Will Pay
TTITLE5=It's A Sin
TTITLE6=I'll Sail My Ship Alone
TTITLE7=Are You Mine
TTITLE8=Flash Your Diamonds
TTITLE9=In The Shelter Of His Arms
TTITLE10=The Best Years Of Your Life
TTITLE11=Crying In The Chapel
TTITLE12=Froggy Went A-Courtin'
TTITLE13=Gypsy Heart
TTITLE14=Money (That's What I Want)
TTITLE15=Hot Rod Lincoln
EXTD=
EXTT0=
EXTT1=
EXTT2=
EXTT3=
EXTT4=
EXTT5=
EXTT6=
EXTT7=
EXTT8=
EXTT9=
EXTT10=
EXTT11=
EXTT12=
EXTT13=
EXTT14=
EXTT15=
PLAYORDER=
